<?xml version="1.0" encoding="UTF-8" standalone="no"?>
<svg
   xmlns:dc="http://purl.org/dc/elements/1.1/"
   xmlns:cc="http://creativecommons.org/ns#"
   xmlns:rdf="http://www.w3.org/1999/02/22-rdf-syntax-ns#"
   xmlns:svg="http://www.w3.org/2000/svg"
   xmlns="http://www.w3.org/2000/svg"
   xmlns:xlink="http://www.w3.org/1999/xlink"
   xmlns:sodipodi="http://sodipodi.sourceforge.net/DTD/sodipodi-0.dtd"
   xmlns:inkscape="http://www.inkscape.org/namespaces/inkscape"
   inkscape:version="1.0 (1.0+r73+1)"
   sodipodi:docname="Red_White_Pill_In_Silver_Foil.svg"
   id="svg898"
   version="1.1"
   viewBox="0 0 210 297"
   height="297mm"
   width="210mm">
  <defs
     id="defs892">
    <radialGradient
       gradientUnits="userSpaceOnUse"
       gradientTransform="matrix(3.0380154,0,0,2.0656287,-176.94129,-57.457265)"
       r="11.385768"
       fy="53.918655"
       fx="86.820389"
       cy="53.918655"
       cx="86.820389"
       id="radialGradient1662"
       xlink:href="#linearGradient1660-2"
       inkscape:collect="always" />
    <linearGradient
       id="linearGradient1660-2"
       inkscape:collect="always">
      <stop
         id="stop1656"
         offset="0"
         style="stop-color:#ffc430;stop-opacity:1;" />
      <stop
         id="stop1658"
         offset="1"
         style="stop-color:#ffc430;stop-opacity:0;" />
    </linearGradient>
  </defs>
  <sodipodi:namedview
     inkscape:window-maximized="0"
     inkscape:window-y="27"
     inkscape:window-x="0"
     inkscape:window-height="1016"
     inkscape:window-width="960"
     inkscape:pagecheckerboard="false"
     showgrid="false"
     inkscape:document-rotation="0"
     inkscape:current-layer="g2081"
     inkscape:document-units="mm"
     inkscape:cy="314.60018"
     inkscape:cx="355.35933"
     inkscape:zoom="0.98994949"
     inkscape:pageshadow="2"
     inkscape:pageopacity="0"
     borderopacity="1.0"
     bordercolor="#666666"
     pagecolor="#ffffff"
     id="base" />
  <metadata
     id="metadata895">
    <rdf:RDF>
      <cc:Work
         rdf:about="">
        <dc:format>image/svg+xml</dc:format>
        <dc:type
           rdf:resource="http://purl.org/dc/dcmitype/StillImage" />
        <dc:title></dc:title>
      </cc:Work>
    </rdf:RDF>
  </metadata>
  <g
     id="layer1"
     inkscape:groupmode="layer"
     inkscape:label="Layer 1">
    <g
       transform="translate(-72.179393,-39.83845)"
       id="g1636">
      <g
         transform="translate(12.323041,7.3926193)"
         id="g2081">
        <rect
           transform="scale(-1,1)"
           ry="5.5638437"
           y="43.772408"
           x="-148.96883"
           height="35.719757"
           width="72.78495"
           id="rect2335"
           style="fill:#e0e0e0;fill-opacity:1;stroke:#282929;stroke-width:1.065;stroke-linecap:round;stroke-linejoin:round" />
        <path
           id="rect865"
           style="fill:#b70000;fill-opacity:1;stroke:#282929;stroke-width:0.442238;stroke-linecap:round;stroke-linejoin:round"
           d="m 133.65464,48.965338 h -5.4118 c -1.51741,0 -2.7389,1.2215 -2.7389,2.73891 v 0.31905 c 0,1.51742 1.22149,2.73912 2.7389,2.73912 h 5.4118 z" />
        <path
           id="path1455"
           style="fill:#ffffff;fill-opacity:1;stroke:#282929;stroke-width:0.442238;stroke-linecap:round;stroke-linejoin:round"
           d="m 133.65464,48.965338 v 5.79708 h 5.41115 c 1.51741,0 2.73912,-1.2217 2.73912,-2.73912 v -0.31905 c 0,-1.51741 -1.22171,-2.73891 -2.73912,-2.73891 z" />
        <path
           d="m 112.66818,48.965338 h -5.4118 c -1.51742,0 -2.73891,1.2215 -2.73891,2.73891 v 0.31905 c 0,1.51742 1.22149,2.73912 2.73891,2.73912 h 5.4118 z"
           style="fill:#b70000;fill-opacity:1;stroke:#282929;stroke-width:0.442238;stroke-linecap:round;stroke-linejoin:round"
           id="rect865-4" />
        <path
           d="m 112.66818,48.965338 v 5.79708 h 5.41114 c 1.51741,0 2.73912,-1.2217 2.73912,-2.73912 v -0.31905 c 0,-1.51741 -1.22171,-2.73891 -2.73912,-2.73891 z"
           style="fill:#ffffff;fill-opacity:1;stroke:#282929;stroke-width:0.442238;stroke-linecap:round;stroke-linejoin:round"
           id="path1455-3" />
        <path
           d="m 91.322494,48.965338 h -5.411802 c -1.517411,0 -2.7389,1.2215 -2.7389,2.73891 v 0.31905 c 0,1.51742 1.221489,2.73912 2.7389,2.73912 h 5.411802 z"
           style="fill:#b70000;fill-opacity:1;stroke:#282929;stroke-width:0.442238;stroke-linecap:round;stroke-linejoin:round"
           id="rect865-3" />
        <path
           d="m 91.322494,48.965338 v 5.79708 h 5.411147 c 1.517412,0 2.73912,-1.2217 2.73912,-2.73912 v -0.31905 c 0,-1.51741 -1.221708,-2.73891 -2.73912,-2.73891 z"
           style="fill:#ffffff;fill-opacity:1;stroke:#282929;stroke-width:0.442238;stroke-linecap:round;stroke-linejoin:round"
           id="path1455-38" />
        <path
           d="m 133.65464,58.991128 h -5.4118 c -1.51741,0 -2.73889,1.2215 -2.73889,2.73891 v 0.31905 c 0,1.51742 1.22148,2.73912 2.73889,2.73912 h 5.4118 z"
           style="fill:#b70000;fill-opacity:1;stroke:#282929;stroke-width:0.442238;stroke-linecap:round;stroke-linejoin:round"
           id="rect865-6" />
        <path
           d="m 133.65464,58.991128 v 5.79708 h 5.41115 c 1.51741,0 2.73912,-1.2217 2.73912,-2.73912 v -0.31905 c 0,-1.51741 -1.22171,-2.73891 -2.73912,-2.73891 z"
           style="fill:#ffffff;fill-opacity:1;stroke:#282929;stroke-width:0.442238;stroke-linecap:round;stroke-linejoin:round"
           id="path1455-0" />
        <path
           id="rect865-4-4"
           style="fill:#b70000;fill-opacity:1;stroke:#282929;stroke-width:0.442238;stroke-linecap:round;stroke-linejoin:round"
           d="m 112.66818,58.991128 h -5.4118 c -1.51742,0 -2.7389,1.2215 -2.7389,2.73891 v 0.31905 c 0,1.51742 1.22148,2.73912 2.7389,2.73912 h 5.4118 z" />
        <path
           id="path1455-3-8"
           style="fill:#ffffff;fill-opacity:1;stroke:#282929;stroke-width:0.442238;stroke-linecap:round;stroke-linejoin:round"
           d="m 112.66818,58.991128 v 5.79708 h 5.41114 c 1.51741,0 2.73912,-1.2217 2.73912,-2.73912 v -0.31905 c 0,-1.51741 -1.22171,-2.73891 -2.73912,-2.73891 z" />
        <path
           id="rect865-3-8"
           style="fill:#b70000;fill-opacity:1;stroke:#282929;stroke-width:0.442238;stroke-linecap:round;stroke-linejoin:round"
           d="m 91.322494,58.991128 h -5.411801 c -1.51741,0 -2.7389,1.2215 -2.7389,2.73891 v 0.31905 c 0,1.51742 1.22149,2.73912 2.7389,2.73912 h 5.411801 z" />
        <path
           id="path1455-38-8"
           style="fill:#ffffff;fill-opacity:1;stroke:#282929;stroke-width:0.442238;stroke-linecap:round;stroke-linejoin:round"
           d="m 91.322494,58.991128 v 5.79708 h 5.411147 c 1.517412,0 2.73912,-1.2217 2.73912,-2.73912 v -0.31905 c 0,-1.51741 -1.221708,-2.73891 -2.73912,-2.73891 z" />
        <path
           d="m 133.65464,69.079648 h -5.4118 c -1.51741,0 -2.73889,1.2215 -2.73889,2.738912 v 0.319047 c 0,1.51742 1.22148,2.739121 2.73889,2.739121 h 5.4118 z"
           style="fill:#b70000;fill-opacity:1;stroke:#282929;stroke-width:0.442238;stroke-linecap:round;stroke-linejoin:round"
           id="rect865-9" />
        <path
           d="m 133.65464,69.079648 v 5.79708 h 5.41115 c 1.51741,0 2.73912,-1.221701 2.73912,-2.739121 V 71.81856 c 0,-1.517412 -1.22171,-2.738912 -2.73912,-2.738912 z"
           style="fill:#ffffff;fill-opacity:1;stroke:#282929;stroke-width:0.442238;stroke-linecap:round;stroke-linejoin:round"
           id="path1455-7" />
        <path
           id="rect865-4-7"
           style="fill:#b70000;fill-opacity:1;stroke:#282929;stroke-width:0.442238;stroke-linecap:round;stroke-linejoin:round"
           d="m 112.66818,69.079648 h -5.4118 c -1.51742,0 -2.7389,1.2215 -2.7389,2.738912 v 0.319047 c 0,1.51742 1.22148,2.739121 2.7389,2.739121 h 5.4118 z" />
        <path
           id="path1455-3-6"
           style="fill:#ffffff;fill-opacity:1;stroke:#282929;stroke-width:0.442238;stroke-linecap:round;stroke-linejoin:round"
           d="m 112.66818,69.079648 v 5.79708 h 5.41114 c 1.51741,0 2.73912,-1.221701 2.73912,-2.739121 V 71.81856 c 0,-1.517412 -1.22171,-2.738912 -2.73912,-2.738912 z" />
        <path
           id="rect865-3-4"
           style="fill:#b70000;fill-opacity:1;stroke:#282929;stroke-width:0.442238;stroke-linecap:round;stroke-linejoin:round"
           d="m 91.322494,69.079648 h -5.411802 c -1.51741,0 -2.7389,1.2215 -2.7389,2.738912 v 0.319047 c 0,1.51742 1.22149,2.739121 2.7389,2.739121 h 5.411802 z" />
        <path
           id="path1455-38-3"
           style="fill:#ffffff;fill-opacity:1;stroke:#282929;stroke-width:0.442238;stroke-linecap:round;stroke-linejoin:round"
           d="m 91.322494,69.079648 v 5.79708 h 5.411147 c 1.517412,0 2.73912,-1.221701 2.73912,-2.739121 V 71.81856 c 0,-1.517412 -1.221708,-2.738912 -2.73912,-2.738912 z" />
        <rect
           transform="scale(-1,1)"
           ry="2.7087543"
           y="49.162449"
           x="-120.61654"
           height="5.4175086"
           width="15.791558"
           id="rect3193"
           style="fill:none;fill-opacity:1;stroke:#282929;stroke-width:0.983739;stroke-linecap:round;stroke-linejoin:round;stroke-opacity:1" />
        <rect
           transform="scale(-1,1)"
           style="fill:none;fill-opacity:1;stroke:#282929;stroke-width:0.983739;stroke-linecap:round;stroke-linejoin:round;stroke-opacity:1"
           id="rect3193-0"
           width="15.791558"
           height="5.4175091"
           x="-99.317154"
           y="49.124409"
           ry="2.7087545" />
        <rect
           transform="scale(-1,1)"
           style="fill:none;fill-opacity:1;stroke:#282929;stroke-width:0.983739;stroke-linecap:round;stroke-linejoin:round;stroke-opacity:1"
           id="rect3193-3"
           width="15.791558"
           height="5.4175091"
           x="-99.206055"
           y="59.019905"
           ry="2.7087545" />
        <rect
           transform="scale(-1,1)"
           style="fill:none;fill-opacity:1;stroke:#282929;stroke-width:0.983739;stroke-linecap:round;stroke-linejoin:round;stroke-opacity:1"
           id="rect3193-09"
           width="15.791558"
           height="5.4175091"
           x="-120.61992"
           y="59.167061"
           ry="2.7087545" />
        <rect
           transform="scale(-1,1)"
           style="fill:none;fill-opacity:1;stroke:#282929;stroke-width:0.983739;stroke-linecap:round;stroke-linejoin:round;stroke-opacity:1"
           id="rect3193-2"
           width="15.791558"
           height="5.4175091"
           x="-141.59305"
           y="49.109108"
           ry="2.7087545" />
        <rect
           transform="scale(-1,1)"
           style="fill:none;fill-opacity:1;stroke:#282929;stroke-width:0.983739;stroke-linecap:round;stroke-linejoin:round;stroke-opacity:1"
           id="rect3193-5"
           width="15.791558"
           height="5.4175091"
           x="-141.49506"
           y="59.159534"
           ry="2.7087545" />
        <rect
           transform="scale(-1,1)"
           style="fill:none;fill-opacity:1;stroke:#282929;stroke-width:0.983739;stroke-linecap:round;stroke-linejoin:round;stroke-opacity:1"
           id="rect3193-4"
           width="15.791558"
           height="5.4175091"
           x="-141.60945"
           y="69.335197"
           ry="2.7087545" />
        <rect
           transform="scale(-1,1)"
           style="fill:none;fill-opacity:1;stroke:#282929;stroke-width:0.983739;stroke-linecap:round;stroke-linejoin:round;stroke-opacity:1"
           id="rect3193-05"
           width="15.791558"
           height="5.4175091"
           x="-120.65658"
           y="69.335091"
           ry="2.7087545" />
        <rect
           transform="scale(-1,1)"
           style="fill:none;fill-opacity:1;stroke:#282929;stroke-width:0.983739;stroke-linecap:round;stroke-linejoin:round;stroke-opacity:1"
           id="rect3193-9"
           width="15.791558"
           height="5.4175091"
           x="-99.184402"
           y="69.307007"
           ry="2.7087545" />
      </g>
    </g>
  </g>
</svg>
